HIERARCHY
ROOT SpineBase
{
  OFFSET 0.000000 0.000000 0.000000
  CHANNELS 6 Xposition Yposition Zposition Zrotation Xrotation Yrotation
  JOINT SpineMid
  {
    OFFSET -0.000000 28.188737 0.000000
    CHANNELS 3 Zrotation Xrotation Yrotation
    JOINT SpineShoulder
    {
      OFFSET 0.010779 21.012244 -0.634390
      CHANNELS 3 Zrotation Xrotation Yrotation
      JOINT Neck
      {
        OFFSET 0.013033 6.974304 -0.440291
        CHANNELS 3 Zrotation Xrotation Yrotation
        JOINT Head
        {
          OFFSET 1.413625 12.703843 0.081309
          CHANNELS 3 Zrotation Xrotation Yrotation
          End Site
          {
            OFFSET 0 0 0
          }
        }
      }
      JOINT ShoulderLeft
      {
        OFFSET -15.114365 -1.340791 -2.944971
        CHANNELS 3 Zrotation Xrotation Yrotation
        JOINT ElbowLeft
        {
          OFFSET -4.964100 -23.361032 -1.951656
          CHANNELS 3 Zrotation Xrotation Yrotation
          JOINT WristLeft
          {
            OFFSET 0.766074 -20.059106 -4.711792
            CHANNELS 3 Zrotation Xrotation Yrotation
            JOINT HandLeft
            {
              OFFSET 1.790204 -4.651933 -0.518840
              CHANNELS 3 Zrotation Xrotation Yrotation
              JOINT HandTipLeft
              {
                OFFSET 0.339074 -6.401216 -1.498017
                CHANNELS 3 Zrotation Xrotation Yrotation
                End Site
                {
                  OFFSET 0 0 0
                }
              }
              JOINT ThumbLeft
              {
                OFFSET 2.828808 0.417967 -1.752508
                CHANNELS 3 Zrotation Xrotation Yrotation
                End Site
                {
                  OFFSET 0 0 0
                }
              }
            }
          }
        }
      }
      JOINT ShoulderRight
      {
        OFFSET 16.190865 -3.322979 2.687893
        CHANNELS 3 Zrotation Xrotation Yrotation
        JOINT ElbowRight
        {
          OFFSET 5.493445 -25.238572 2.436064
          CHANNELS 3 Zrotation Xrotation Yrotation
          JOINT WristRight
          {
            OFFSET -1.146310 -19.545861 -5.754198
            CHANNELS 3 Zrotation Xrotation Yrotation
            JOINT HandRight
            {
              OFFSET -2.582601 -4.345526 -0.638566
              CHANNELS 3 Zrotation Xrotation Yrotation
              JOINT HandTipRight
              {
                OFFSET -0.909112 -5.436556 -1.748135
                CHANNELS 3 Zrotation Xrotation Yrotation
                End Site
                {
                  OFFSET 0 0 0
                }
              }
              JOINT ThumbRight
              {
                OFFSET -2.980717 2.267028 0.119973
                CHANNELS 3 Zrotation Xrotation Yrotation
                End Site
                {
                  OFFSET 0 0 0
                }
              }
            }
          }
        }
      }
    }
  }
  JOINT HipLeft
  {
    OFFSET -7.521664 1.185376 -4.159823
    CHANNELS 3 Zrotation Xrotation Yrotation
    JOINT KneeLeft
    {
      OFFSET -2.087070 -26.446013 3.047739
      CHANNELS 3 Zrotation Xrotation Yrotation
      JOINT AnkleLeft
      {
        OFFSET -3.215221 -32.141160 8.978624
        CHANNELS 3 Zrotation Xrotation Yrotation
        JOINT FootLeft
        {
          OFFSET 2.761569 -4.305807 -8.141884
          CHANNELS 3 Zrotation Xrotation Yrotation
          End Site
          {
            OFFSET 0 0 0
          }
        }
      }
    }
  }
  JOINT HipRight
  {
    OFFSET 6.894652 0.509283 -1.983083
    CHANNELS 3 Zrotation Xrotation Yrotation
    JOINT KneeRight
    {
      OFFSET -4.171589 -27.749907 4.098831
      CHANNELS 3 Zrotation Xrotation Yrotation
      JOINT AnkleRight
      {
        OFFSET -3.746754 -30.782462 8.777768
        CHANNELS 3 Zrotation Xrotation Yrotation
        JOINT FootRight
        {
          OFFSET 1.108600 -3.709098 -11.887760
          CHANNELS 3 Zrotation Xrotation Yrotation
          End Site
          {
            OFFSET 0 0 0
          }
        }
      }
    }
  }
}
MOTION
Frames: 7
Frame Time: 0.033333
43.373880 65.426520 372.132091 -2.869955 -3.708746 -27.909072 -0.299720 -0.140290 27.732289 0.090117 -0.548941 -0.111093 -11.328220 12.094181 1.337270 0.000000 0.000000 0.000000 1.795548 18.904974 -2.652392 10.523984 -6.395877 3.023438 -18.479038 19.958679 14.266785 20.514512 -43.457065 -5.185540 0.000000 0.000000 0.000000 0.000000 0.000000 0.000000 3.337544 -2.950722 -1.467382 -8.405353 34.067026 4.654996 31.116232 -14.266600 -0.817742 -23.494266 7.313277 4.124535 0.000000 0.000000 0.000000 0.000000 0.000000 0.000000 -11.705430 3.543690 26.959133 9.030080 -2.866320 1.114424 6.426529 4.316462 -2.319905 0.000000 0.000000 0.000000 11.124576 18.792801 26.773007 -7.796706 -11.308186 1.793547 -4.750388 -3.017424 -17.335573 0.000000 0.000000 0.000000
44.684110 65.285767 372.644915 -3.015710 -3.728939 -27.399647 -0.139427 -0.049939 27.213275 0.165629 -0.486745 -0.105455 -13.597466 13.593896 1.692946 0.000000 0.000000 0.000000 0.754253 19.915294 -2.593699 11.511239 -5.660069 3.375377 -21.356537 18.431690 14.564405 23.674222 -44.039834 -4.560335 0.000000 0.000000 0.000000 0.000000 0.000000 0.000000 0.781248 1.099891 -0.716590 -8.315694 31.915798 4.948088 24.462354 1.971389 -16.457046 -13.856684 -19.092849 14.432250 0.000000 0.000000 0.000000 0.000000 0.000000 0.000000 -12.608358 3.675982 26.392720 8.914221 -2.943686 0.918374 7.433791 4.034910 -1.845197 0.000000 0.000000 0.000000 10.873379 17.812191 26.378899 -6.221762 -10.483440 2.139501 -5.538845 -4.589193 -18.488579 0.000000 0.000000 0.000000
46.312912 65.099676 373.139907 -2.862634 -3.745118 -26.322828 0.046592 0.001061 26.144287 0.234427 -0.450953 -0.089655 -15.731563 15.040666 2.034240 0.000000 0.000000 0.000000 -0.444976 20.858062 -2.543610 11.426497 -4.893942 3.731102 -22.092552 18.515030 15.133002 23.063774 -43.211292 -5.410651 0.000000 0.000000 0.000000 0.000000 0.000000 0.000000 -2.698733 6.090281 0.439036 -4.584680 25.813433 3.283517 36.124538 -9.747154 -4.873558 -29.407056 -9.629865 8.283271 0.000000 0.000000 0.000000 0.000000 0.000000 0.000000 -13.890477 3.750320 25.247980 8.688558 -2.841858 0.639577 8.510871 3.757791 -0.817791 0.000000 0.000000 0.000000 10.021042 16.330168 25.481393 -4.825100 -9.419777 2.217899 -6.072781 -9.388176 -21.471756 0.000000 0.000000 0.000000
48.120417 64.903886 373.648205 -2.743823 -3.660887 -24.879199 0.193849 0.016917 24.708788 0.304392 -0.404525 -0.076852 -17.333459 15.854821 2.274221 0.000000 0.000000 0.000000 -2.317515 21.687567 -2.249858 12.852946 -4.698758 4.121785 -27.083543 20.072340 17.396760 25.037069 -44.934657 -5.833584 0.000000 0.000000 0.000000 0.000000 0.000000 0.000000 -6.497949 11.127105 1.947057 0.707413 17.779020 1.344053 38.480511 -12.722938 -0.475565 -28.382099 -4.138858 5.996934 0.000000 0.000000 0.000000 0.000000 0.000000 0.000000 -15.173519 3.920481 23.729910 8.484528 -2.763356 0.357965 9.543788 3.533531 0.454479 0.000000 0.000000 0.000000 8.775319 14.505445 24.223527 -3.090412 -8.334481 2.295820 -7.102286 -16.546266 -26.689314 0.000000 0.000000 0.000000
49.874363 64.692515 374.113616 -2.380596 -3.649601 -22.645110 0.204108 0.061862 22.498491 0.360404 -0.365958 -0.060055 -20.665859 16.647163 2.824465 0.000000 0.000000 0.000000 -4.046213 22.091157 -1.957265 13.402806 -4.179945 4.379028 -28.938616 20.586657 18.382403 25.911564 -42.086556 -6.157153 0.000000 0.000000 0.000000 0.000000 0.000000 0.000000 -10.410239 15.687450 3.645606 8.780516 6.444033 -0.585345 34.476673 -5.442604 -5.764058 -31.136230 -7.526433 7.037814 0.000000 0.000000 0.000000 0.000000 0.000000 0.000000 -16.543650 4.541583 21.499304 8.139597 -2.745172 0.066819 10.451756 3.304778 1.928334 0.000000 0.000000 0.000000 7.293513 12.386033 22.172152 -1.555997 -6.903439 2.182101 -9.704199 -26.754256 -34.868832 0.000000 0.000000 0.000000
51.303132 64.430485 374.614343 -2.360538 -3.741686 -20.234736 0.024566 0.069309 20.089412 0.299314 -0.359198 -0.067291 -21.677736 17.101190 3.104222 0.000000 0.000000 0.000000 -5.194802 22.409103 -1.580485 14.132283 -3.855627 4.585173 -30.564362 19.646380 18.331635 27.035810 -40.575904 -6.171015 0.000000 0.000000 0.000000 0.000000 0.000000 0.000000 -13.231546 19.400398 5.311263 18.104280 -7.290655 -0.914792 28.294212 7.367746 -14.776787 -29.865887 -12.437778 8.481790 0.000000 0.000000 0.000000 0.000000 0.000000 0.000000 -17.128237 5.932443 19.243594 7.223574 -2.983354 -0.316964 11.211220 3.077408 3.643991 0.000000 0.000000 0.000000 6.522770 10.931344 19.834981 -0.688425 -5.771212 1.985942 -15.238828 -37.539956 -46.088428 0.000000 0.000000 0.000000
52.430899 64.064606 375.161545 -2.597880 -3.857894 -18.422314 0.009680 0.146454 18.261307 0.249284 -0.350441 -0.077087 -22.846450 17.012844 3.388175 0.000000 0.000000 0.000000 -6.089254 22.289253 -1.186258 14.809936 -3.326304 4.608730 -31.504642 16.297549 16.438098 28.784326 -34.656890 -5.741003 0.000000 0.000000 0.000000 0.000000 0.000000 0.000000 -16.332073 22.574486 7.069501 29.297199 -21.598318 1.413629 18.925929 21.524261 -21.559283 -28.222326 -17.295636 10.122038 0.000000 0.000000 0.000000 0.000000 0.000000 0.000000 -17.387405 7.424092 17.613515 6.509924 -3.434639 -0.616221 11.750308 2.852224 5.042432 0.000000 0.000000 0.000000 6.065939 10.156862 18.016803 -0.522612 -4.920219 1.669278 -21.754642 -45.241811 -57.569647 0.000000 0.000000 0.000000
